<svg width="606" height="525" viewBox="0 0 606 525" fill="none" xmlns="http://www.w3.org/2000/svg">
<path d="M130.549 167.433C129.655 167.433 128.775 167.124 128.071 166.531C126.958 165.597 126.544 164.182 126.99 162.84L130.282 152.931C122.28 151.874 116.102 145.379 116.102 137.547V99.2487C116.102 90.6825 123.493 83.7155 132.58 83.7155H193.301C202.388 83.7155 209.779 90.6842 209.779 99.2487V137.547C209.779 146.114 202.388 153.081 193.301 153.081H165.587L132.085 167.12C131.586 167.33 131.064 167.433 130.549 167.433Z" fill="#F5BDFE"/>
<path d="M525.995 83.7154C525.099 83.7154 524.222 83.4067 523.517 82.8143C522.405 81.8797 521.99 80.4651 522.436 79.1227L525.729 69.2141C517.726 68.157 511.548 61.6615 511.548 53.8302V15.5333C511.548 6.96706 518.939 0 528.026 0H588.748C597.834 0 605.226 6.96874 605.226 15.5333V53.8319C605.226 62.3981 597.834 69.3652 588.748 69.3652H561.034L527.531 83.405C527.031 83.6131 526.511 83.7154 525.995 83.7154Z" fill="#91E6FB"/>
<path d="M100.646 169.647H232.99V215.126H150.673V303.81H215.253V349.289H150.673V488H100.646V169.647ZM280.981 169.647H348.745L400.591 488H350.564L341.468 424.784V425.694H284.62L275.524 488H229.135L280.981 169.647ZM335.556 382.489L313.271 225.131H312.362L290.532 382.489H335.556ZM571.326 517.561C548.586 517.561 534.639 507.404 529.485 487.09C520.086 490.729 509.019 492.548 496.285 492.548C471.727 492.548 452.929 485.574 439.891 471.628C426.854 457.681 420.335 437.973 420.335 412.505V245.142C420.335 219.674 426.854 199.966 439.891 186.019C452.929 172.073 471.727 165.099 496.285 165.099C520.844 165.099 539.642 172.073 552.679 186.019C565.717 199.966 572.235 219.674 572.235 245.142V412.505C572.235 433.728 567.536 451.162 558.137 464.806C559.956 467.838 562.23 469.808 564.959 470.718C567.687 471.628 571.629 472.082 576.783 472.082H584.515V517.561H571.326ZM496.285 447.069C513.567 447.069 522.208 436.609 522.208 415.688V241.959C522.208 221.038 513.567 210.578 496.285 210.578C479.003 210.578 470.362 221.038 470.362 241.959V415.688C470.362 436.609 479.003 447.069 496.285 447.069Z" fill="black"/>
<path d="M73.1072 154.92C58.5992 160.915 51.2697 176.153 47.2056 190.55C41.341 211.322 39.5841 233.111 42.0491 254.475C43.4099 266.265 46.2441 278.35 53.8337 287.826C61.4233 297.3 74.7701 303.503 86.8953 300.214C95.2954 297.936 101.736 291.69 107.369 285.406C110.85 281.521 114.211 277.493 116.695 272.98C120.232 266.554 121.868 259.377 123.467 252.299C126.145 240.449 128.834 228.505 128.969 216.391C129.105 204.278 126.511 191.836 119.386 181.741C114.691 175.089 112.768 169.218 106.399 163.936C101.568 159.928 81.0491 148.189 68.5464 159.277" fill="#CA5E49"/>
<path d="M72.5614 153.987C46.94 164.937 41.4228 199.232 39.6424 223.822C37.8033 249.201 39.0383 286.359 65.4802 299.325C88.843 310.781 112.345 289.561 120.851 268.539C126.554 254.443 129.524 237.558 130.682 222.436C131.827 207.48 129.38 193.373 121.26 180.647C114.689 170.347 109.474 161.643 98.0334 156.448C88.103 151.94 75.8335 149.906 67.1868 157.915C65.5994 159.385 67.6801 162.155 69.5225 160.942C95.0114 144.149 120.056 178.939 125.17 200.242C129.295 217.42 125.407 234.93 121.593 251.782C118.171 266.899 112.255 278.927 100.784 289.675C87.5174 302.104 69.1635 301.951 56.6825 288.423C44.8442 275.591 43.1226 255.772 42.7601 239.162C42.1728 212.279 46.0843 169.345 73.6571 155.854C74.924 155.232 73.8098 153.453 72.5614 153.987Z" fill="#CA5E49"/>
<path d="M82.8941 222.654C72.8646 218.439 66.8205 231.081 66.8205 231.081C66.8205 231.081 58.8584 262.882 56.6636 266.866C54.5426 270.71 22.5481 250.651 19.7392 248.879C17.5594 246.565 14.7823 244.86 11.8022 243.719C10.0588 243.052 9.27012 243.191 7.48305 243.679C5.60369 244.193 3.26121 244.09 1.61677 245.211C-0.722366 246.804 0.0545453 248.71 0.433773 250.921C0.559623 251.66 0.361622 251.994 0.591508 252.653C0.75763 253.13 1.56978 253.291 1.6906 253.702C2.01948 254.813 1.08819 255.915 1.51608 257.076C1.78456 257.806 2.45913 258.325 2.71586 258.902C3.08334 259.728 2.8803 260.27 3.65218 260.865C6.32691 262.933 11.3777 259.189 13.7168 258.214C14.7538 257.781 16.3865 257.565 17.9018 257.155C24.7648 263.077 60.1958 292.972 67.2954 285.388C75.1652 276.981 87.4297 238.831 87.4297 238.831C87.4297 238.831 92.9235 226.867 82.8941 222.654Z" fill="#F6A676"/>
<path d="M73.8851 458.977C64.1628 451.879 66.0606 475.332 68.6833 479.99C69.2807 481.052 70.6802 480.799 71.5292 480.183C74.3449 478.139 74.6067 474.191 74.8433 470.947C74.9708 469.209 75.0665 467.462 75.293 465.727C75.5397 463.846 76.1739 462.212 75.788 460.393C75.5816 459.423 74.8584 458.779 73.8851 458.977Z" fill="#F6A676"/>
<path d="M74.4204 476.166L75.9843 487.273L42.7129 485.791C42.7129 485.791 43.1123 481.866 47.1713 481.561C51.2304 481.255 58.3284 481.66 60.4796 479.364C62.6307 477.069 64.985 475.236 64.985 475.236C64.985 475.236 67.7973 474.179 68.4383 476.539C68.4383 476.539 70.9603 473.926 74.4204 476.166Z" fill="#1E1029"/>
<path d="M60.9189 286.163C60.9189 286.163 49.2668 321.713 54.1582 354.652L66.9614 470.108L75.0879 467.751C83.9746 448.987 100.162 395.072 81.9476 380.433C81.9476 380.433 97.4355 326.334 86.6628 289.039C75.89 251.744 60.9189 286.163 60.9189 286.163Z" fill="#1E1029"/>
<path d="M102.913 461.007C92.3783 455.23 97.3301 478.257 100.548 482.526C101.282 483.499 102.636 483.061 103.394 482.339C105.915 479.94 105.65 475.992 105.453 472.745C105.348 471.004 105.212 469.261 105.207 467.509C105.2 465.611 105.613 463.907 104.988 462.156C104.655 461.225 103.852 460.683 102.913 461.007Z" fill="#FFBD95"/>
<path d="M107.416 477.156L109.624 488.152L76.3242 488.617C76.3242 488.617 76.4937 484.675 80.5293 484.133C84.5632 483.591 91.6729 483.581 93.6865 481.165C95.7001 478.748 97.9436 476.78 97.9436 476.78C97.9436 476.78 100.689 475.56 101.467 477.878C101.467 477.878 103.832 475.124 107.416 477.156Z" fill="#1E1029"/>
<path d="M63.1357 288.02L94.7946 471.145L105.269 469.543C111.585 449.764 120.468 394.177 100.47 382.087C100.47 382.087 137.978 312.964 95.1285 287.718C71.217 273.631 63.1357 288.02 63.1357 288.02Z" fill="#322736"/>
<path d="M95.6313 290.022L108.079 228.899C109.958 226.444 104.431 221.16 95.0574 216.214C87.8471 212.408 78.5124 211.829 72.438 221.83C66.8184 231.082 62.5344 233.705 60.0963 239.684C59.2254 241.817 59.1113 245.572 60.1013 247.653L63.4657 252.881L60.1752 290.71C60.1752 290.71 58.9251 292.954 72.3742 294.489C86.8 296.133 95.6313 290.022 95.6313 290.022Z" fill="#1E1029"/>
<path d="M77.3059 208.309L77.0878 214.987C76.9149 220.274 77.4854 225.575 82.1755 224.709C85.9694 224.008 93.6412 219.82 95.0575 216.212L96.3814 209.696C97.5141 204.124 94.3242 198.927 89.3187 198.184L88.2129 198.019C82.704 197.205 77.5089 202.105 77.3059 208.309Z" fill="#F6A676"/>
<path d="M64.1479 204.919C76.6507 221.051 85.0809 219.112 92.741 210.628C101.832 200.556 104.66 183.583 98.3891 172.393C92.1185 161.202 77.6424 162.588 67.7858 168.11C57.9292 173.633 50.0275 186.701 64.1479 204.919Z" fill="#FFBD95"/>
<path d="M79.12 208.411C82.3506 208.411 84.9695 205.792 84.9695 202.561C84.9695 199.331 82.3506 196.712 79.12 196.712C75.8894 196.712 73.2705 199.331 73.2705 202.561C73.2705 205.792 75.8894 208.411 79.12 208.411Z" fill="#FF8763"/>
<path d="M98.6954 191.391C98.7021 191.537 98.7373 191.675 98.8028 191.802C99.3079 192.975 100.34 193.576 101.618 193.26C103.842 192.713 104.995 188.319 107.238 188.517C106.673 188.389 106.105 188.263 105.54 188.136C104.473 187.646 105.402 186.634 104.662 187.839C104.354 188.34 104.016 188.775 103.619 189.211C103.226 189.644 102.83 190.022 102.365 190.372C102.053 190.601 101.731 190.814 101.4 191.012C100.749 191.314 100.722 191.379 101.323 191.205C101.895 191.332 102.468 191.461 103.04 191.589C103.082 191.618 103.125 191.646 103.167 191.675C103.488 192.173 103.808 192.67 104.129 193.168C103.81 194.484 103.941 194.717 104.52 193.866C104.745 193.618 104.969 193.369 105.196 193.121C105.421 192.873 105.646 192.624 105.872 192.376C106.347 191.829 106.465 191.706 106.223 192.005C105.671 192.18 105.119 192.356 104.567 192.53C104.674 192.527 104.783 192.522 104.891 192.519C104.349 192.398 103.807 192.275 103.263 192.154C103.355 192.206 103.446 192.257 103.538 192.309C103.127 191.936 102.714 191.564 102.303 191.191C102.233 190.961 102.162 190.73 102.092 190.5C102.212 189.96 102.333 189.419 102.454 188.881C102.407 188.986 102.36 189.094 102.313 189.199C102.684 188.79 103.055 188.381 103.426 187.97C103.802 187.975 103.692 187.971 103.098 187.961C100.009 187.902 99.0863 192.478 101.8 193.775C104.728 195.173 108.846 193.613 108.599 189.898C108.396 186.845 104.985 184.885 102.357 186.693C101.159 187.516 100.108 188.832 99.1535 189.926C98.1517 191.074 97.3446 192.364 97.4067 193.953C97.4688 195.539 98.447 197.026 99.8716 197.707C101.431 198.452 102.968 197.979 104.406 197.222C108.673 194.98 114.677 188.277 110.5 183.444C108.045 180.605 104.417 181.642 102.03 183.936C99.927 185.956 99.1703 188.08 98.7172 190.852C99.3481 190.453 99.979 190.055 100.61 189.656C100.523 189.634 100.434 189.612 100.347 189.592C99.2088 189.317 98.5074 190.398 98.6954 191.391Z" fill="#FFBD95"/>
<path d="M66.1086 206.515C66.5365 207.746 65.6723 208.528 65.5599 209.683C65.4106 211.22 66.6657 212.987 68.4192 212.306C70.062 211.668 70.9026 209.908 70.7651 208.181C70.6409 206.632 69.6475 205.404 68.4008 204.585C67.2027 203.8 65.674 205.265 66.1086 206.515Z" fill="#FF8763"/>
<path d="M102.892 189.47C103.077 189.745 103.072 189.641 102.879 189.156C102.687 188.76 102.716 188.364 102.962 187.971C102.999 187.916 103.036 187.86 103.072 187.803C102.961 187.929 102.845 188.047 102.721 188.157C102.313 188.525 103.107 187.923 102.315 188.454C102.207 188.523 102.1 188.594 101.994 188.663C101.404 188.983 101.566 188.948 102.486 188.558C103.031 188.681 103.578 188.803 104.124 188.924C104.206 188.98 104.288 189.033 104.37 189.089C104.681 189.572 104.993 190.057 105.303 190.54C105.283 190.451 105.265 190.361 105.245 190.272C105.27 190.847 105.295 191.423 105.32 191.998C105.24 192.109 105.174 192.227 105.124 192.354C105.281 192.195 105.441 192.035 105.599 191.876C106.077 191.396 106.448 190.877 106.808 190.302C107.592 189.047 107.121 187.184 106.074 186.239C105.053 185.318 103.1 184.974 101.967 185.914C100.108 187.454 98.1248 189.953 99.0158 192.537C100.014 195.433 103.333 195.626 105.547 194.119C107.142 193.034 108.673 191.525 109.04 189.565C109.633 186.406 106.397 184.27 103.684 185.741C102.474 186.401 102.053 188.386 102.892 189.47Z" fill="#F6A676"/>
<path d="M56.428 178.775C56.6601 178.701 56.5457 178.339 56.3136 178.413C56.0815 178.487 56.1959 178.849 56.428 178.775Z" fill="#CA5E49"/>
<path d="M19.9437 260.535C20.6417 259.803 20.8699 259.006 20.536 258.461L8.32187 238.538C7.63556 237.419 5.0699 237.883 3.63521 239.387C2.93716 240.118 2.70896 240.915 3.04288 241.461L15.257 261.384C15.9433 262.503 18.5107 262.038 19.9437 260.535Z" fill="#1E1029"/>
<path d="M20.5843 259.575C21.2824 258.843 21.5106 258.046 21.1767 257.501L8.9625 237.578C8.2762 236.459 5.71054 236.924 4.27585 238.427C3.5778 239.159 3.34958 239.956 3.68351 240.501L15.8977 260.424C16.584 261.541 19.1513 261.077 20.5843 259.575Z" fill="#322736"/>
<path d="M9.34912 239.446L18.0747 253.615L14.1516 255.855L4.86719 240.887L9.34912 239.446Z" fill="#8A8F89"/>
<path d="M18.1012 258.617C19.5946 258.617 19.5963 256.296 18.1012 256.296C16.6077 256.296 16.6061 258.617 18.1012 258.617Z" fill="#1E1029"/>
<path d="M99.3952 330.113C99.5395 328.88 99.7493 327.629 99.912 326.378C120.112 274.034 110.871 246.57 109.797 229.153C109.458 223.664 102.357 220.92 98.3632 224.887C97.1299 226.112 96.1248 227.631 95.5341 229.304C93.4047 235.328 94.7824 242.085 95.769 248.47C98.9321 268.965 97.6988 290.076 94.1968 310.502C93.6212 313.856 92.9953 317.285 92.5389 320.714C91.9801 321.959 90.6981 322.748 89.5386 323.436C88.1862 324.238 84.315 326.259 83.7109 327.802C83.5364 328.25 83.9073 328.878 84.3704 328.963C85.5752 329.188 88.2399 328.334 89.401 328.873C89.735 329.029 88.7366 330.026 88.2617 332.059C86.6995 336.352 86.3421 337.468 85.5685 341.882C85.3202 343.302 87.2331 343.844 87.7297 342.478C88.5771 340.152 89.2584 337.718 89.8843 335.261C89.9279 335.328 89.9632 335.397 90.0085 335.462C89.3725 339.402 88.7164 343.362 88.5503 347.304C88.5033 348.406 90.1461 348.589 90.4431 347.561C91.3677 344.356 91.6512 341.55 92.2973 337.724C93.6363 338.55 92.2067 337.659 92.2973 337.724C92.6262 337.964 92.997 338.166 93.3796 338.347C93.1262 342.059 93.1077 345.784 93.6262 349.445C93.7588 350.378 95.1029 350.056 95.1717 349.235C95.2707 348.032 95.4486 345.042 95.6449 338.894C96.2859 338.88 96.5527 338.882 96.8732 338.671C97.2121 340.805 97.2491 345.007 97.6635 347.067C97.8347 347.92 98.8801 347.75 98.9472 346.896C99.1536 344.24 99.0328 333.207 99.3952 330.113Z" fill="#FFBD95"/>
<path d="M57.0693 175.932C58.1718 176.9 59.2759 177.868 60.4119 178.796C65.1372 182.659 70.4229 185.835 76.0525 188.193C83.6203 191.362 91.9633 193.153 98.427 198.207C101.889 200.914 104.619 204.422 107.453 207.782C108.005 208.436 108.77 209.156 109.592 208.913C109.876 208.829 110.114 208.637 110.336 208.439C114.501 204.731 114.944 198.487 115.091 192.911C115.2 188.797 115.288 184.553 113.781 180.724C112.678 177.92 110.772 175.495 108.617 173.388C101.884 166.802 92.4281 163.086 83.0129 163.331C73.5976 163.576 64.3468 167.775 57.9637 174.703" fill="#CA5E49"/>
<path d="M56.4032 176.599C68.8959 190.597 89.6947 190.448 102.003 203.926C104.245 206.381 106.792 211.752 110.796 210.104C115.605 208.126 116.43 199.548 116.741 195.336C117.803 180.903 112.165 170.367 98.5009 164.503C84.2731 158.396 67.0635 161.781 56.8512 173.594C55.5256 175.128 57.5443 177.158 59.0763 175.819C69.8675 166.374 83.5734 162.172 97.2575 168.072C103.909 170.94 110.898 176.136 112.786 183.545C114.001 188.314 114.217 197.457 112.282 202.082C109.039 209.834 108.042 205.766 105.211 202.578C103.454 200.602 101.664 198.697 99.5865 197.049C96.5057 194.604 92.9803 192.913 89.3625 191.419C83.6321 189.055 77.6165 187.506 72.064 184.697C66.8035 182.036 62.4021 178.385 57.5459 175.118C56.618 174.492 55.7203 175.834 56.4032 176.599Z" fill="#CA5E49"/>
<path d="M457.838 87.068C467.849 84.1835 472.182 96.886 472.182 96.886C472.182 96.886 476.191 128.028 477.832 132.06C479.417 135.955 512.098 120.46 514.969 119.089C517.302 117.133 520.134 115.822 523.097 115.072C524.831 114.633 525.566 114.854 527.21 115.518C528.94 116.218 531.179 116.383 532.618 117.633C534.666 119.41 533.712 121.135 533.105 123.197C532.902 123.885 533.053 124.224 532.761 124.826C532.55 125.261 531.759 125.323 531.598 125.701C531.16 126.721 531.924 127.874 531.387 128.929C531.049 129.594 530.35 130.011 530.041 130.532C529.598 131.275 529.731 131.814 528.93 132.293C526.153 133.96 521.77 129.834 519.654 128.644C518.716 128.117 517.189 127.728 515.793 127.167C508.601 132.03 471.551 156.495 465.648 148.484C459.105 139.606 451.715 101.945 451.715 101.945C451.715 101.945 447.826 89.9525 457.838 87.068Z" fill="#F6A676"/>
<path d="M516.448 138.65L510.494 133.223C509.434 132.257 509.358 130.614 510.325 129.553L540.008 96.9918C540.975 95.9313 542.618 95.8557 543.678 96.8223L549.632 102.249C550.692 103.215 550.768 104.858 549.801 105.919L520.117 138.48C519.151 139.541 517.508 139.618 516.448 138.65Z" fill="#4C649F"/>
<path d="M551.527 106.963L546.538 102.416L516.32 135.563L521.308 140.111L551.527 106.963Z" fill="white"/>
<path d="M546.941 102.785L541.952 98.2373L511.734 131.385L516.722 135.933L546.941 102.785Z" fill="#EEEDD7"/>
<path d="M519.072 141.043L518.987 140.965C518.441 140.469 518.403 139.625 518.899 139.081L550.286 104.652C550.783 104.106 551.627 104.068 552.171 104.565L552.256 104.642C552.802 105.138 552.84 105.982 552.344 106.526L520.957 140.955C520.46 141.501 519.616 141.539 519.072 141.043Z" fill="#6A7AB4"/>
<path d="M564.897 191.252C564.897 191.252 569.48 194.188 568.428 200.974C567.983 203.845 578.947 202.899 583.715 203.171C590.911 203.58 592.673 202.966 592.737 202.9C592.737 202.9 593.944 200.491 589.757 200.095C585.183 199.662 574.967 195.165 566.802 187.949L564.897 191.252Z" fill="#FFBD95"/>
<path d="M445.555 164.66C445.555 164.66 434.932 192.7 467.906 196.796C500.753 200.877 535.33 155.363 535.33 155.363C535.33 155.363 524.735 172.144 567.447 194.235L574.259 191.953L537.325 135.331L472.185 155.839L445.555 164.66Z" fill="#F37D56"/>
<path d="M567.479 198.408C567.479 198.408 566.881 202.097 569.996 202.892C573.11 203.687 593.82 203.798 593.82 203.798C593.82 203.798 598.563 202.202 588.777 199.219C588.777 199.219 586.109 200.805 579.708 199.642C573.306 198.477 568.875 198.001 567.479 198.408Z" fill="#1E1029"/>
<path d="M460.485 100.873C458.552 101.813 456.469 100.47 456.674 98.4063C457.04 94.7063 457.209 91.2614 457.082 87.7426L457.067 72.9309C456.914 68.7191 459.577 72.4913 463.453 72.1171C467.043 71.7714 470.34 74.3052 471.224 78.0924L471.905 91.6288C471.521 100.007 465.304 98.5304 460.485 100.873Z" fill="#F6A676"/>
<path d="M573.316 207.429C573.316 207.429 579.184 211.426 573.711 215.569C571.393 217.323 579.929 224.27 583.166 227.78C588.051 233.079 589.746 233.865 589.836 233.861C589.836 233.861 592.378 232.97 589.647 229.772C586.662 226.28 584.359 213.9 577.167 203.473L573.316 207.429Z" fill="#FFBD95"/>
<path d="M445.456 167.236C445.456 167.236 434.833 195.276 467.807 199.372C500.654 203.452 539.262 160.462 539.262 160.462C539.262 160.462 524.49 194.124 575.164 210.626L579.265 205.711L541.468 138.68L472.085 158.415L445.456 167.236Z" fill="#FBAB91"/>
<path d="M574.812 213.066C574.812 213.066 571.817 215.301 573.501 218.038C575.186 220.774 589.988 235.261 589.988 235.261C589.988 235.261 594.507 237.414 589.55 228.463C589.55 228.463 586.529 227.747 582.741 222.458C578.952 217.168 576.099 213.744 574.812 213.066Z" fill="#1E1029"/>
<path d="M445.334 165.515L448.044 102.632C448.044 102.632 449.521 94.505 451.91 89.3351C455.186 82.2472 468.942 80.9417 474.224 90.8234C477.696 97.3173 480.173 103.041 484.359 108.692C485.901 110.775 485.734 113.646 483.967 115.542L481.547 118.138L483.418 152.304C483.418 152.304 483.616 159.227 467.594 164.756C452.791 169.862 445.334 165.515 445.334 165.515Z" fill="#E0F0FF"/>
<path d="M496.612 72.2815C483.755 90.6505 473.714 88.9138 463.869 79.9281C452.185 69.2628 447.066 50.694 453.18 38.0654C459.295 25.4368 476.33 26.2774 488.42 31.8937C500.51 37.5116 511.13 51.5364 496.612 72.2815Z" fill="#FFBD95"/>
<path d="M488.65 73.3127C490.004 69.4697 487.736 65.1679 483.584 63.7044C479.431 62.2408 474.967 64.1698 473.613 68.0128C472.258 71.8558 474.526 76.1576 478.679 77.6211C482.831 79.0846 487.295 77.1557 488.65 73.3127Z" fill="#FF8763"/>
<path d="M498.074 65.3699C497.273 66.9019 497.107 68.6369 497.659 70.2898C498.198 71.904 499.671 73.7699 501.426 74.0955C502.975 74.3824 504.078 72.6641 502.97 71.4425C502.23 70.6254 501.406 70.1169 500.827 69.1454C500.302 68.2627 500.015 67.3079 500.23 66.2793C500.49 65.0326 498.725 64.1231 498.074 65.3699Z" fill="#FF8763"/>
<path d="M462.455 86.3818C472.758 84.8313 475.392 97.9902 475.392 97.9902C475.392 97.9902 475.295 129.389 476.395 133.602C477.459 137.67 511.884 126.582 514.911 125.598C517.48 123.964 520.458 123.034 523.494 122.679C525.269 122.471 525.969 122.784 527.512 123.659C529.135 124.578 531.335 125.034 532.598 126.462C534.396 128.493 533.226 130.079 532.353 132.042C532.063 132.698 532.167 133.054 531.798 133.611C531.531 134.013 530.739 133.973 530.531 134.324C529.964 135.279 530.57 136.52 529.899 137.497C529.477 138.111 528.729 138.435 528.355 138.91C527.819 139.589 527.88 140.14 527.024 140.512C524.054 141.801 520.247 137.138 518.305 135.681C517.444 135.035 515.981 134.45 514.669 133.713C506.903 137.594 466.972 157.005 462.168 148.292C456.842 138.635 454.439 100.331 454.439 100.331C454.439 100.331 452.152 87.9339 462.455 86.3818Z" fill="#FFBD95"/>
<path d="M503.29 42.0892C498.394 50.3467 488.68 54.2279 479.589 57.3154C470.497 60.4029 460.72 63.6834 455.008 71.3989C448.15 64.6986 445.612 54.6491 445.354 45.0643C445.274 42.0825 445.391 39.0521 446.29 36.2095C449.271 26.7909 460.34 21.8693 470.177 22.7805C480.013 23.6916 488.819 29.0545 497.023 34.5567C499.757 36.3907 502.809 38.9749 502.331 42.2319" fill="black"/>
<path d="M502.625 41.4214C489.934 57.3423 466.7 54.832 453.756 70.1454C454.592 70.1454 455.427 70.1454 456.263 70.1454C446.148 58.5085 441.386 32.9744 459.359 26.2221C466.871 23.3997 474.817 25.0005 481.938 28.1837C486.96 30.4272 499.611 36.0468 500.289 42.2319C500.572 44.8126 504.643 44.8613 504.38 42.2319C503.455 33.0566 491.473 27.8816 484.051 24.5709C475.131 20.5924 465.051 18.9849 455.896 23.2302C436.812 32.0817 441.252 59.9549 453.758 72.6524C454.375 73.2782 455.669 73.4007 456.265 72.6524C468.544 57.2584 494.246 60.3778 504.108 42.5641C504.603 41.6681 503.316 40.5522 502.625 41.4214Z" fill="black"/>
<path d="M471.501 62.5742C471.329 62.5189 471.16 62.4635 470.989 62.4081C471.287 62.8008 471.586 63.1934 471.885 63.5861C471.801 62.3427 472.596 60.9818 472.586 59.6629C472.573 58.1494 472.269 56.6039 471.727 55.1944C470.742 52.6287 468.405 50.5866 465.513 51.5699C459.441 53.6339 462.085 63.3277 464.923 66.9505C466.455 68.907 469.213 69.2846 470.797 67.0914C471.668 65.8849 471.534 64.4352 471.257 63.0525C470.947 61.497 470.744 59.4699 469.853 58.1225C468.515 56.1005 465.314 56.4093 464.216 58.5353C462.958 60.9734 465 63.3948 467.378 63.863C469.715 64.3227 471.526 60.96 469.104 59.7653C468.067 59.032 467.232 59.5689 466.597 61.3762C466.233 60.903 465.869 60.4281 465.503 59.9549C465.958 61.0506 465.921 62.3628 466.406 63.42C466.473 63.7254 466.54 64.0291 466.608 64.3345C468.423 64.3093 469.017 63.8848 468.388 63.0592C468.359 62.581 467.762 61.8141 467.587 61.3325C467.186 60.2284 466.947 59.0689 466.918 57.8943C466.911 57.6342 466.801 56.8187 466.975 56.6006C467.166 56.3589 467.645 57.7634 467.708 57.953C468.48 60.2469 467.487 66.2507 471.742 64.4435C472.616 64.0744 472.249 62.8176 471.501 62.5742Z" fill="#FFBD95"/>
<path d="M469.133 59.2971C469.914 58.6142 470 57.5 469.453 56.6459C468.809 55.6424 467.424 55.1742 466.28 55.4897C463.513 56.2498 463.83 59.6377 464.644 61.6983C465.065 62.7638 465.553 63.8713 466.488 64.5811C467.604 65.4285 469.111 65.4889 470.253 64.6583C472.104 63.3142 471.759 60.3274 471.067 58.4447C470.651 57.3103 469.653 56.5116 468.394 56.6995C467.243 56.8724 466.238 57.8591 466.282 59.0924C466.31 59.8559 466.466 60.5858 466.644 61.3258C466.673 61.4416 466.699 61.5574 466.728 61.6715C466.777 61.9148 466.785 61.9014 466.751 61.6362C466.753 61.7117 466.756 61.7889 466.758 61.8644C466.782 61.2855 467.124 60.8543 467.787 60.5673C468.211 60.5673 468.636 60.5673 469.062 60.5673C469.111 60.5757 469.433 60.8945 469.468 60.8727C469.463 60.8761 469.138 60.2703 469.112 60.2166C468.956 59.8945 468.871 59.1293 468.666 58.9112C468.503 58.7383 468.919 58.6427 468.5 59.1125C468.46 59.3474 468.329 59.4934 468.106 59.5538C467.824 59.673 467.777 59.7116 467.961 59.6679C468.089 59.6428 468.092 59.6444 467.975 59.6696C467.804 59.7049 467.861 59.6998 468.146 59.6545C468.433 59.5958 468.661 59.5119 468.933 59.3961C468.636 59.4766 468.341 59.5572 468.044 59.636C468.08 59.6344 468.117 59.631 468.154 59.6293C467.882 59.5555 467.612 59.4833 467.34 59.4095C467.406 59.4414 467.471 59.4733 467.537 59.5035C468.101 59.7753 468.661 59.7082 469.133 59.2971Z" fill="#F6A676"/>
<path d="M453.963 32.0615C450.013 30.0479 445.776 28.4354 441.355 28.125C436.933 27.8145 432.285 28.922 428.931 31.8182C423.588 36.4311 422.632 44.2052 421.929 51.2277C421.227 58.2501 419.984 66.0612 414.368 70.3367C412.357 71.8671 409.953 72.7849 407.818 74.1357C405.682 75.4865 403.712 77.4867 403.424 79.997C403.023 83.4755 406.127 86.5764 409.52 87.4372C412.914 88.2997 416.484 87.4993 419.893 86.7006C416.596 89.6404 417.45 95.886 421.415 97.8324C426.144 100.153 431.559 96.4665 435.22 92.6793C438.877 88.8988 442.271 84.6283 443.706 79.5674C445.635 72.7598 443.788 65.5427 442.66 58.5572C441.533 51.5717 441.367 43.6918 445.88 38.2433C447.174 36.6811 448.832 35.3521 449.627 33.4862C450.423 31.6202 452.389 32.1186 450.423 31.6202" fill="black"/>
<path d="M454.46 31.2125C446.22 26.9588 435.62 23.8259 427.666 30.553C419.642 37.3389 421.253 48.6905 419.112 57.8575C418.1 62.19 416.838 65.1349 413.652 68.152C411.015 70.6489 407.577 71.8234 405 74.3371C402.822 76.4631 401.476 78.8979 402.005 82.0206C403.451 90.5768 414.246 89.5616 420.311 88.2158C419.801 87.3399 419.291 86.4623 418.781 85.5864C415.811 89.2662 415.21 94.7164 419.102 98.1395C425.129 103.442 433.053 97.4129 437.323 92.9142C444.28 85.583 447.129 77.6897 445.935 67.615C445.294 62.2119 443.696 56.8691 443.752 51.3972C443.814 45.3228 446.703 36.8992 452.004 33.1674C452.972 32.4861 452.955 30.8299 451.657 30.5077C451.368 30.4356 451.079 30.3651 450.791 30.2929C449.344 29.9338 448.252 32.1505 449.73 32.8083C449.999 32.9274 450.267 33.0465 450.536 33.1674C450.536 32.33 450.536 31.4927 450.536 30.6537C447.554 32.0498 444.795 36.4931 443.089 39.2921C440.659 43.2807 440.115 48.0244 440.281 52.6003C440.538 59.6579 443.079 66.5646 442.751 73.6458C442.459 79.9886 439.902 84.8649 435.815 89.5398C434.647 90.8889 433.398 92.1574 432.068 93.3471C420.921 97.1898 417.234 95.344 421.006 87.8114C421.976 86.61 421.095 84.8229 419.476 85.182C416.372 86.0462 413.193 86.2911 409.938 85.9186C405.856 79.7772 406.158 75.906 410.846 74.3035C412.844 72.6138 415.444 72.0198 417.36 70.0615C420.328 67.0311 421.79 62.9032 422.699 58.8475C423.921 53.3923 423.669 47.6535 425.194 42.2621C429.173 28.1887 442.008 27.8179 453.469 32.9106C454.598 33.4123 455.605 31.8031 454.46 31.2125Z" fill="black"/>
<path d="M408.506 410.17C411.355 422.551 413.725 435.042 415.607 447.606C416.186 451.464 416.718 455.401 416.077 459.25C415.436 463.099 413.441 466.909 410.041 468.821C409.05 469.38 407.927 469.77 406.791 469.712C405.709 469.657 404.68 469.199 403.779 468.595C398.675 465.165 398.034 458.042 397.898 451.894C397.628 439.609 397.356 427.325 397.086 415.038C397.054 413.582 397.079 411.962 398.072 410.895C399.39 409.479 401.853 409.813 403.314 411.078C404.776 412.345 405.487 414.248 406.142 416.069" fill="#FFBD95"/>
<path d="M366.527 369.442L393.981 377.23L403.244 469.167L346.442 468.615L342 373.058L359.986 367.626L366.527 369.442Z" fill="#F5BDFE"/>
<path d="M378.148 364.631L376.974 372.184C376.044 378.162 371.129 382.18 365.735 381.371C360.553 380.594 356.596 375.602 356.517 369.744L356.413 362.141C356.324 355.637 361.013 350.474 366.797 350.702L368.074 350.752C374.44 351.006 379.239 357.617 378.148 364.631Z" fill="#F6A676"/>
<path d="M388.902 355.827C383.971 370.325 380.293 382.17 366.588 378.163C352.882 374.155 334.339 355.812 339.27 341.315C344.202 326.817 359.312 318.315 373.017 322.322C386.723 326.329 393.836 341.329 388.902 355.827Z" fill="#FFBD95"/>
<path d="M375.428 362.755C375.575 364.044 374.976 365.26 375.267 366.559C375.544 367.803 376.171 369.031 376.505 370.279C377.173 372.786 374.475 374.701 373.032 372.286C371.944 370.467 371.81 368.452 372.161 366.472C372.438 364.903 372.636 362.708 373.916 361.874C374.502 361.493 375.325 361.862 375.428 362.755Z" fill="#FF8763"/>
<path d="M341.652 331.187C335.916 333.159 333.426 340.366 334.703 346.296C335.98 352.226 340.011 357.125 343.947 361.74C345.585 363.658 347.443 365.697 349.936 366.084C349.798 358.354 350.267 350.613 351.336 342.956C352.747 342.898 354.098 343.472 355.411 343.992C362.449 346.772 370.19 348.257 377.625 346.861C385.062 345.465 392.123 340.866 395.261 333.981C396.385 331.514 396.989 328.685 396.241 326.079C395.492 323.473 393.133 321.223 390.421 321.228C387.528 321.235 385.075 323.636 382.184 323.742C378.482 323.878 375.846 320.407 373.017 318.015C369.956 315.427 365.899 313.865 361.92 314.35C357.942 314.835 354.178 317.59 353.044 321.434C347.459 319.322 340.549 324.557 341.073 330.506" fill="#323441"/>
<path d="M341.491 330.606C323.762 336.083 338.462 362.918 349.652 367.116C350.308 367.363 351.013 366.73 351.005 366.086C350.936 360.305 350.392 353.543 351.778 347.891C352.609 344.507 352.334 344.894 355.131 345.007C357.373 345.098 361.012 347.032 363.288 347.517C370.319 349.017 377.799 348.871 384.412 345.824C391.658 342.487 405.046 327.782 393.842 321.08C392.225 320.114 390.842 319.983 389.035 320.196C387.216 320.411 385.681 321.822 383.93 322.018C378.586 322.619 377.2 319.548 374.02 317.016C369.814 313.667 364.311 311.675 359.017 313.571C356.138 314.603 355.106 317.206 352.743 318.521C350.798 319.604 349.166 319.312 346.949 320.097C342.323 321.736 339.831 325.809 339.633 330.506C339.554 332.363 342.427 332.355 342.517 330.506C343.501 324.413 346.879 321.867 352.649 322.869C353.235 323.003 354.059 322.794 354.331 322.184C358.4 313.083 367.726 315.607 373.706 320.538C375.505 322.022 377.067 323.888 379.381 324.628C380.405 324.955 381.484 325.111 382.548 325.055C387.968 324.779 384.85 321.609 391.003 327.338C395.557 329.214 396.292 331.898 393.207 335.39C392.07 337.248 390.683 338.881 389.045 340.29C385.743 343.166 381.61 344.99 377.338 345.811C367.8 347.643 360.543 343.228 351.616 341.946C350.882 341.841 350.386 342.22 350.292 342.955C349.736 347.341 349.292 351.727 349.068 356.145C349.025 356.998 349.416 362.357 348.864 362.77C346.842 364.277 344.873 361.148 343.882 359.966C337.019 351.786 330.305 339.327 341.957 331.707C342.506 331.348 342.172 330.395 341.491 330.606Z" fill="#323441"/>
<path d="M348.231 366.148L346.877 356.025C346.877 356.025 341.687 352.571 339.36 356.619C337.032 360.664 342.81 366.017 348.231 366.148Z" fill="#FFBD95"/>
<path d="M350.615 342.418C357.913 350.088 370.921 356.046 381.653 352.915C392 349.897 395.415 337.788 393.255 328.232C392.096 328.72 390.936 329.208 389.778 329.698C393.47 337.865 386.39 345.4 378.406 345.782C372.946 346.044 367.993 343.587 363.623 340.562C361.858 339.34 359.653 342.156 361.311 343.559C364.665 346.396 367.958 348.222 372.171 349.499C374.539 350.215 375.5 346.594 373.186 345.817C370.837 345.029 368.827 344.693 366.379 344.609C364.098 344.532 363.959 347.641 365.87 348.361C370.122 349.962 373.973 350.491 378.495 350.103C380.252 349.952 380.878 348.168 379.848 346.839C377.48 343.792 373.56 344.391 370.095 343.408C367.625 342.706 365.826 341.433 363.514 340.691C360.764 339.81 357.811 339.986 355.122 339.137C354.206 338.849 353.307 339.624 353.29 340.533C353.174 346.957 363.469 352.372 368.79 353.449C376.827 355.075 383.105 349.756 386.864 343.173C388.013 341.161 385.181 339.691 383.853 341.413C380.046 346.351 375.631 350.922 368.639 349.355C365.199 348.584 356.824 344.005 356.134 340.149C355.54 340.743 354.948 341.335 354.354 341.929C358.361 343.505 362.481 344.715 366.521 346.237C369.36 347.306 375.25 347.103 377.146 349.543C377.598 348.455 378.047 347.366 378.499 346.279C374.332 346.636 370.765 346.134 366.889 344.676C366.719 345.926 366.55 347.178 366.38 348.428C368.402 348.36 370.334 348.715 372.173 349.497C372.512 348.271 372.849 347.042 373.188 345.816C369.679 344.753 366.847 343.258 364.011 340.861C363.241 341.859 362.469 342.859 361.699 343.857C369.179 349.034 379.078 352.076 387.436 346.905C394.178 342.731 396.265 334.855 393.065 327.78C392.143 325.74 389.134 327.237 389.589 329.247C392.349 341.441 384.39 351.368 371.797 349.536C364.296 348.443 358.175 344.827 352.253 340.302C351 339.339 349.599 341.347 350.615 342.418Z" fill="#323441"/>
<path d="M369.99 348.739C368.532 354.204 375.218 354.191 378.846 354.264C384.414 354.377 391.641 355.738 395.237 350.341C397.915 346.322 398.356 339.417 395.918 335.194C393.641 331.246 388.946 330.402 385.484 333.187C384.011 334.372 385.283 336.765 386.968 336.768C388.164 336.771 390.341 336.572 391.344 337.228C393.252 338.474 392.994 341.043 392.196 342.748C390.992 345.329 388.951 346.947 386.245 347.745C386.929 348.92 387.612 350.095 388.295 351.269C391.034 347.948 393.348 344.686 393.131 340.216C391.759 340.402 390.386 340.587 389.013 340.773C390.487 345.084 386.976 345.76 383.776 346.321C381.595 346.703 382.439 349.616 384.255 349.848C390.983 350.71 395.222 346.037 393.057 339.657C392.334 337.525 388.825 337.733 388.939 340.215C389.096 343.576 387.35 345.827 385.315 348.286C384.053 349.809 385.193 352.447 387.366 351.81C392.49 350.308 396.667 346.099 397.145 340.602C397.707 334.139 392.494 332.558 386.968 332.571C387.463 333.764 387.956 334.959 388.451 336.152C392.738 332.67 393.336 341.753 393.24 343.112C392.972 346.974 391.678 349.554 387.414 350.325C385.943 350.59 372.599 351.006 372.72 349.108C372.819 347.527 370.388 347.245 369.99 348.739Z" fill="#323441"/>
<path d="M393.981 377.23L414.854 415.352L393.344 421.322L393.981 377.23Z" fill="#F5BDFE"/>
<path d="M331.422 399.275L325.906 445.885L345.539 449.201L352.115 410.11L331.422 399.275Z" fill="#FFBD95"/>
<path d="M350.402 370.521L339.444 373.422L317.318 411.711L349.665 424.524L361.285 386.425L350.402 370.521Z" fill="#F5BDFE"/>
<path d="M317.318 466.709C319.052 460.994 323.963 456.893 328.769 453.347C338.023 446.521 347.818 440.43 358.033 435.149C359.661 439.401 359.087 444.261 357.313 448.454C355.54 452.647 352.652 456.267 349.611 459.653C344.906 464.89 339.74 469.712 334.191 474.045C332.521 475.349 330.736 476.644 328.652 477.024C325.185 477.654 321.619 475.451 319.914 472.367C318.208 469.283 318.099 465.531 318.775 462.073" fill="#FFBD95"/>
<path d="M352.185 455.918C353.87 453.35 355.768 450.999 357.862 448.758C359.57 446.929 362.131 445.236 363.302 443.034C363.621 442.435 363.089 441.621 362.384 441.839C359.825 442.635 357.605 445.444 355.941 447.44C353.968 449.808 352.266 452.401 350.758 455.084C350.234 456.017 351.605 456.802 352.185 455.918Z" fill="#FFBD95"/>
<path d="M310.462 460.381C310.462 460.381 319.27 503.934 361.3 500.95C403.332 497.967 386.422 480.739 386.422 480.739L310.462 460.381Z" fill="#1E1029"/>
<path d="M362.586 501.547C362.586 501.547 340.007 510.025 307.054 505.786C307.054 505.786 305.682 499.259 307.054 495.597C308.427 491.936 311.124 489.647 318.242 491.478C325.36 493.309 341.505 496.97 357.46 496.054L362.586 501.547Z" fill="#FFAF43"/>
<path d="M409.248 501.547C409.248 501.547 429.844 510.025 459.898 505.786C459.898 505.786 461.15 499.259 459.898 495.597C458.647 491.936 456.187 489.647 449.695 491.478C443.202 493.309 428.476 496.97 413.923 496.054L409.248 501.547Z" fill="#FFAF43"/>
<path d="M439.014 460.381C439.014 460.381 419.433 503.934 383.092 500.95C346.752 497.967 373.338 480.739 373.338 480.739L439.014 460.381Z" fill="#1E1029"/>
<path d="M439.416 460.997C430.073 473.268 403.865 499.853 348.398 506.972L339.314 492.022C337.711 494.106 374.048 477.567 424.586 445.877C439.014 436.83 443.491 455.648 439.416 460.997Z" fill="#474D87"/>
<path d="M314.466 468.874C333.443 484.848 375.512 499.925 429.109 508.389L434.851 494.299C434.851 494.299 327.299 424.264 312.08 452.647C309.291 457.851 309.984 465.1 314.466 468.874Z" fill="#474D87"/>
<path d="M378.057 447.598H364.086C362.539 447.598 361.285 446.345 361.285 444.798V414.63C361.285 413.083 362.539 411.83 364.086 411.83H378.057C379.604 411.83 380.857 413.083 380.857 414.63V444.798C380.857 446.345 379.604 447.598 378.057 447.598Z" fill="#322736"/>
<path d="M356.072 438.411C358.105 437.099 360.173 435.845 362.3 434.693C363.212 434.199 364.131 433.706 365.056 433.24C366.427 432.548 366.957 432.041 367.844 433.582C368.91 435.429 368.071 435.76 366.539 436.703C365.636 437.258 364.727 437.805 363.811 438.339C361.394 439.747 358.74 441.566 355.8 441.069C355.911 441.911 356.02 442.754 356.13 443.596C359.948 440.7 363.747 437.777 367.524 434.827C368.289 434.23 367.886 433.1 367.244 432.645C366.036 431.793 364.838 432.562 363.643 433.11C361.388 434.144 359.241 435.342 357.162 436.693C355.523 437.758 356.941 440.099 358.678 439.285C361.532 437.946 364.366 436.564 367.205 435.193C366.68 434.295 366.155 433.396 365.63 432.498C362.805 434.609 359.921 436.634 357.089 438.733C355.59 439.844 356.404 442.393 358.416 441.881C361.899 440.995 364.765 439.04 367.594 436.887C366.88 435.961 366.165 435.035 365.45 434.109C364.478 435.062 363.507 436.015 362.535 436.966C361.275 438.201 362.56 440.405 364.257 439.925C366.584 439.265 370.57 437.032 370.284 434.122C369.984 431.055 366.836 431.402 365.052 432.88C366.031 433.449 367.009 434.02 367.987 434.589C368.11 434.159 368.232 433.729 368.353 433.3C367.791 433.728 367.229 434.156 366.667 434.584C367.715 434.56 368.194 434.374 368.923 433.632C369.875 432.667 369.323 431.298 368.188 430.848C368.016 430.78 367.843 430.711 367.67 430.642C366.222 430.068 364.968 432.288 366.14 433.271C366.282 433.392 366.427 433.511 366.569 433.632C366.682 432.76 366.794 431.889 366.906 431.016C366.828 431.04 366.747 431.063 366.668 431.087C365.886 431.095 365.205 431.625 364.984 432.37C364.856 432.798 364.728 433.226 364.601 433.654C364.057 435.478 366.267 436.389 367.536 435.362C366.596 434.614 365.804 434.713 365.156 435.659C364.608 436.077 363.995 436.361 363.316 436.51C363.889 437.497 364.463 438.482 365.037 439.468C366.009 438.515 366.98 437.562 367.952 436.611C369.341 435.248 367.443 432.585 365.807 433.832C363.228 435.797 360.683 437.713 357.5 438.56C357.943 439.609 358.384 440.66 358.827 441.708C361.634 439.555 364.388 437.332 367.205 435.193C368.781 433.996 367.474 431.592 365.63 432.499C362.804 433.891 359.971 435.272 357.162 436.696C357.667 437.56 358.173 438.424 358.678 439.289C359.898 438.443 361.138 437.636 362.428 436.899C362.775 436.701 365.658 434.918 365.843 435.048C365.749 434.322 365.655 433.595 365.562 432.867C361.973 435.674 358.364 438.455 354.738 441.212C353.914 441.838 353.756 443.517 355.068 443.739C359.223 444.438 362.67 442.239 366.12 440.185C368.219 438.935 371.716 437.688 371.268 434.691C370.971 432.699 368.868 429.628 366.64 429.734C364.901 429.816 362.495 431.775 361.104 432.642C359.047 433.927 357.052 435.303 355.097 436.74C354.108 437.458 355.001 439.102 356.072 438.411Z" fill="#FFBD95"/>
<path d="M356.939 438.139C357.295 437.309 357.681 436.498 358.09 435.693C358.268 435.34 358.939 433.426 359.305 433.305C359.693 433.176 359.83 433.526 359.993 433.79C360.096 433.976 360.188 434.166 360.272 434.36C360.374 434.75 360.418 434.812 360.401 434.545C360.294 434.788 359.527 435.109 359.319 435.241C358.837 435.55 358.357 435.861 357.876 436.169C358.458 436.752 359.038 437.332 359.621 437.914C360.327 436.5 360.851 435.033 361.151 433.479C361.426 432.058 359.594 431.192 358.778 432.479C358.355 433.146 357.918 433.86 357.275 434.334C357.998 434.748 358.721 435.164 359.445 435.579C359.455 434.812 359.545 434.033 359.287 433.3C358.842 432.038 357.184 432.053 356.733 433.3C356.469 434.03 356.557 434.812 356.558 435.579C356.563 437.06 358.476 437.473 359.246 436.307C359.812 435.448 360.476 434.667 361.02 433.792C360.23 433.458 359.438 433.124 358.647 432.791C358.404 434.129 358.015 435.406 357.419 436.629C356.904 437.69 358.017 439.131 359.164 438.374C360.367 437.582 362.651 436.664 362.869 435.055C363.051 433.719 361.977 431.877 360.824 431.206C357.258 429.132 355.859 435.136 355.261 437.434C355.011 438.398 356.516 439.126 356.939 438.139Z" fill="#FFBD95"/>
<path d="M358.905 432.798C359.041 432.011 359.135 431.226 359.069 430.425C359.004 429.639 358.667 428.927 358.556 428.165C358.467 427.554 358.712 428.274 358.844 428.519C359.078 428.949 359.301 429.39 359.48 429.847C359.866 430.832 360.009 431.815 359.95 432.87C360.531 432.791 361.111 432.713 361.692 432.634C361.293 430.808 360.499 429.207 359.425 427.687C358.865 426.895 357.645 427.17 357.593 428.184C357.517 429.654 357.744 431.019 358.257 432.399C358.668 433.506 360.511 433.446 360.452 432.102C360.412 431.189 360.257 430.367 359.903 429.519C359.495 428.543 358.014 428.321 357.688 429.519C357.322 430.858 356.78 432.241 356.744 433.639C356.717 434.664 358.21 435.087 358.698 434.167C359.353 432.937 359.564 431.474 359.905 430.13C359.205 430.222 358.505 430.313 357.806 430.405C358.052 430.964 358.173 431.494 358.22 432.102C358.952 432.003 359.683 431.904 360.415 431.805C359.937 430.634 359.653 429.447 359.563 428.184C359.004 428.415 358.443 428.647 357.885 428.878C358.935 430.097 359.581 431.56 359.985 433.105C360.237 434.067 361.744 433.877 361.727 432.869C361.704 431.357 361.293 429.939 360.662 428.57C360.244 427.663 359.645 426.095 358.433 426.041C357.576 426.004 356.953 426.814 356.898 427.603C356.848 428.31 357.228 428.999 357.401 429.664C357.656 430.645 357.747 431.625 357.702 432.635C357.665 433.315 358.786 433.49 358.905 432.798Z" fill="#FFBD95"/>
<path d="M363.029 432.543C368.067 430.822 370.515 425.705 375.089 423.257C374.574 423.047 374.059 422.838 373.544 422.628C373.692 423.383 371.445 424.881 370.946 425.309C369.919 426.194 368.884 427.068 367.84 427.93C366.139 429.338 363.823 430.629 362.704 432.55C362.417 433.042 362.892 433.667 363.444 433.513C366.359 432.699 369.116 429.57 371.384 427.658C373.059 426.247 376.059 424.616 375.571 422.069C375.437 421.373 374.581 421.146 374.025 421.44C369.455 423.863 366.98 428.749 362.503 431.296C361.848 431.671 362.284 432.798 363.029 432.543Z" fill="#FFBD95"/>
<path d="M365.311 432.651C366.186 434.28 368.604 432.369 369.585 431.835C371.025 431.053 372.458 430.254 373.888 429.454C375.406 428.605 377.344 426.95 379.032 426.571C378.604 426.397 378.177 426.222 377.749 426.049C377.515 425.568 375.376 427.512 374.95 427.796C373.921 428.479 372.846 429.103 371.79 429.743C369.631 431.053 367.335 432.226 365.305 433.728C364.229 434.523 365.13 436.141 366.363 435.538C369.815 433.852 373.206 431.572 376.431 429.479C377.849 428.56 380.652 426.903 379.71 424.9C379.49 424.43 378.888 424.279 378.427 424.378C376.25 424.841 373.792 426.828 371.867 427.949C370.735 428.608 369.597 429.259 368.469 429.929C367.86 430.29 366.159 431.62 365.887 431.644C365.383 431.691 365.058 432.177 365.311 432.651Z" fill="#FFBD95"/>
<path d="M366.239 436.315C371.38 435.862 375.846 432.84 380.687 431.264C380.307 430.771 379.928 430.278 379.549 429.784C376.498 433.901 369.953 434.558 365.56 436.646C364.44 437.178 365.229 438.987 366.399 438.634C369.479 437.703 372.495 436.342 375.453 435.075C377.797 434.072 379.782 432.884 381.289 430.8C381.801 430.092 380.95 429.05 380.151 429.32C375.374 430.939 370.996 433.934 366.061 435C365.336 435.157 365.482 436.381 366.239 436.315Z" fill="#FFBD95"/>
<path d="M364.449 440.337C369.753 439.233 375.034 438.017 380.339 436.918C380.116 436.391 379.895 435.862 379.672 435.335C375.265 438.193 368.869 438.45 363.912 440.141C359.19 441.752 354.205 443.48 350.203 446.511C349.184 447.281 349.719 449.392 351.172 448.811C356.758 446.575 361.806 443.363 367.551 441.415C371.849 439.958 376.74 439.403 380.546 436.83C381.388 436.26 380.839 435.095 379.878 435.248C374.502 436.102 369.236 437.225 364.043 438.871C363.108 439.168 363.492 440.537 364.449 440.337Z" fill="#FFBD95"/>
<path d="M364.1 439.915C362.041 440.812 359.629 441.096 357.673 442.217C355.857 443.257 353.906 445.729 354.136 447.883C354.215 448.628 354.867 449.014 355.555 448.699C357.408 447.848 357.863 445.516 359.717 444.636C361.749 443.673 363.408 442.752 365.179 441.316C366.033 440.623 364.942 439.547 364.1 439.915Z" fill="#FFBD95"/>
<path d="M355.542 450.535C357.171 448.122 359.062 446.177 361.529 444.623C363.551 443.348 366.183 442.41 367.811 440.645C368.13 440.299 367.813 439.784 367.365 439.878C364.801 440.411 361.858 442.296 359.767 443.87C357.56 445.531 355.969 447.6 354.615 449.993C354.27 450.6 355.159 451.105 355.542 450.535Z" fill="#FFBD95"/>
<path d="M144.641 110.636C144.641 108.78 145.178 106.897 146.25 104.991C147.324 103.085 148.889 101.506 150.948 100.255C153.007 99.0037 155.408 98.3778 158.154 98.3778C160.704 98.3778 162.956 98.9013 164.909 99.9467C166.862 100.994 168.371 102.415 169.436 104.214C170.5 106.013 171.034 107.968 171.034 110.079C171.034 111.741 170.73 113.198 170.123 114.448C169.515 115.7 168.794 116.78 167.958 117.69C167.122 118.599 165.622 120.128 163.458 122.279C162.86 122.885 162.38 123.419 162.02 123.878C161.659 124.338 161.39 124.758 161.214 125.139C161.038 125.519 160.902 125.9 160.805 126.283C160.707 126.664 160.563 127.333 160.369 128.292C160.035 130.325 158.988 131.34 157.227 131.34C156.313 131.34 155.543 131.008 154.918 130.344C154.294 129.679 153.982 128.693 153.982 127.382C153.982 125.739 154.21 124.318 154.668 123.115C155.126 121.913 155.732 120.856 156.489 119.949C157.246 119.039 158.266 117.958 159.551 116.707C160.677 115.613 161.491 114.785 161.993 114.228C162.495 113.671 162.916 113.05 163.26 112.366C163.604 111.681 163.775 110.939 163.775 110.137C163.775 108.573 163.251 107.253 162.204 106.179C161.157 105.105 159.806 104.566 158.154 104.566C156.217 104.566 154.793 105.108 153.878 106.194C152.964 107.278 152.188 108.877 151.556 110.988C150.958 113.198 149.822 114.302 148.151 114.302C147.166 114.302 146.334 113.918 145.656 113.144C144.978 112.371 144.641 111.535 144.641 110.636ZM157.519 142.778C156.445 142.778 155.509 142.392 154.709 141.62C153.907 140.848 153.507 139.767 153.507 138.38C153.507 137.148 153.893 136.113 154.668 135.27C155.442 134.431 156.393 134.01 157.519 134.01C158.628 134.01 159.56 134.431 160.316 135.27C161.073 136.111 161.451 137.148 161.451 138.38C161.451 139.749 161.055 140.825 160.263 141.606C159.472 142.387 158.558 142.778 157.519 142.778Z" fill="black"/>
<path d="M546.703 26.1298C546.703 24.2739 547.238 22.3895 548.312 20.485C549.386 18.5805 550.952 16.9998 553.011 15.7497C555.071 14.4979 557.471 13.872 560.218 13.872C562.768 13.872 565.02 14.3972 566.973 15.4426C568.927 16.488 570.435 17.9109 571.499 19.7098C572.564 21.5069 573.096 23.4618 573.096 25.5744C573.096 27.2356 572.791 28.6921 572.185 29.9439C571.578 31.1957 570.856 32.2763 570.021 33.1858C569.185 34.0953 567.685 35.6239 565.52 37.7751C564.923 38.3809 564.441 38.9145 564.082 39.3726C563.721 39.8323 563.453 40.2518 563.278 40.6344C563.102 41.0153 562.965 41.3962 562.869 41.7788C562.772 42.1597 562.627 42.8292 562.433 43.7874C562.099 45.8211 561.052 46.8363 559.293 46.8363C558.377 46.8363 557.607 46.5041 556.983 45.8379C556.358 45.1734 556.046 44.1868 556.046 42.8762C556.046 41.2335 556.274 39.8122 556.731 38.6091C557.189 37.406 557.796 36.3505 558.553 35.441C559.308 34.5315 560.33 33.4509 561.614 32.1991C562.74 31.1051 563.554 30.2778 564.055 29.7207C564.557 29.1636 564.98 28.5444 565.322 27.8598C565.666 27.1752 565.837 26.4318 565.837 25.6314C565.837 24.0659 565.314 22.7469 564.267 21.673C563.22 20.5991 561.869 20.0588 560.216 20.0588C558.28 20.0588 556.853 20.6008 555.939 21.6881C555.024 22.7721 554.249 24.3713 553.616 26.4822C553.019 28.6904 551.883 29.7962 550.212 29.7962C549.227 29.7962 548.395 29.412 547.718 28.6384C547.04 27.8648 546.703 27.0292 546.703 26.1298ZM559.583 58.2702C558.51 58.2702 557.573 57.8859 556.773 57.1124C555.971 56.3405 555.571 55.2599 555.571 53.8722C555.571 52.6405 555.957 51.6035 556.731 50.7628C557.506 49.9221 558.456 49.501 559.582 49.501C560.689 49.501 561.622 49.9221 562.379 50.7628C563.136 51.6035 563.515 52.6388 563.515 53.8722C563.515 55.2397 563.119 56.3153 562.327 57.099C561.537 57.8792 560.62 58.2702 559.583 58.2702Z" fill="black"/>
<path d="M307.357 343.579C308.195 343.579 309.013 343.29 309.674 342.737C310.715 341.862 311.102 340.54 310.685 339.287L307.607 330.027C315.086 329.041 320.86 322.97 320.86 315.652V279.862C320.86 271.858 313.952 265.345 305.461 265.345H248.714C240.224 265.345 233.315 271.858 233.315 279.862V315.652C233.315 323.656 240.224 330.168 248.714 330.168H274.613L305.922 343.289C306.387 343.483 306.876 343.579 307.357 343.579Z" fill="#FFD8CC"/>
<path d="M263.071 287.067C263.071 285.404 263.551 283.72 264.513 282.013C265.472 280.305 266.875 278.894 268.718 277.773C270.562 276.654 272.711 276.093 275.17 276.093C277.453 276.093 279.47 276.561 281.217 277.498C282.966 278.434 284.316 279.708 285.271 281.317C286.224 282.928 286.701 284.678 286.701 286.569C286.701 288.057 286.429 289.359 285.885 290.48C285.342 291.601 284.696 292.568 283.947 293.382C283.199 294.195 281.856 295.566 279.918 297.491C279.383 298.033 278.954 298.509 278.631 298.922C278.308 299.333 278.068 299.711 277.91 300.052C277.752 300.392 277.63 300.735 277.544 301.075C277.457 301.416 277.328 302.016 277.155 302.872C276.856 304.693 275.918 305.604 274.342 305.604C273.524 305.604 272.834 305.305 272.275 304.711C271.716 304.117 271.436 303.231 271.436 302.06C271.436 300.589 271.641 299.315 272.05 298.239C272.46 297.164 273.003 296.219 273.681 295.405C274.358 294.591 275.272 293.623 276.421 292.504C277.43 291.524 278.158 290.784 278.608 290.286C279.058 289.786 279.435 289.23 279.742 288.618C280.049 288.007 280.202 287.341 280.202 286.624C280.202 285.223 279.734 284.042 278.796 283.08C277.858 282.117 276.65 281.636 275.17 281.636C273.436 281.636 272.161 282.122 271.34 283.094C270.522 284.065 269.829 285.497 269.261 287.386C268.726 289.364 267.709 290.354 266.212 290.354C265.33 290.354 264.587 290.009 263.979 289.317C263.372 288.626 263.071 287.873 263.071 287.067ZM274.601 315.843C273.639 315.843 272.802 315.498 272.084 314.806C271.367 314.117 271.008 313.148 271.008 311.905C271.008 310.803 271.354 309.875 272.049 309.123C272.742 308.369 273.592 307.994 274.601 307.994C275.594 307.994 276.428 308.369 277.106 309.123C277.784 309.875 278.121 310.803 278.121 311.905C278.121 313.13 277.767 314.093 277.059 314.793C276.351 315.493 275.53 315.843 274.601 315.843Z" fill="black"/>
</svg>
